<svg width="116" height="273" viewBox="0 0 116 273" fill="none" xmlns="http://www.w3.org/2000/svg">
<g clip-path="url(#clip0)">
<path d="M24.7 264.7C22.6 255.2 19.6 248.2 18.3 218.2C15.3 152.2 44.5 122 54.7 113C83.6 84.9 78.3 89.5 86.6 82.2C88.2 80.8 91.1 78.4 94.9 81.4C97.9 83.8 96.4 87.8 93.6 90.7C89.7 94.5 78 105.9 78.8 106.5C79.5 107.1 104.8 86.7 107.8 83.9C111.4 80.5 114 79.5 116.9 81.8C120 84.3 119 88.5 116.1 91.1C112.3 94.6 89.8 114.5 91.2 114.4C92.6 114.3 115.8 100.3 119.3 97.9C122.9 95.5 127.7 95.8 129.2 98.5C130.7 101.1 129.2 104.9 125.6 107.3C122 109.7 87.2 132.8 89.5 134.6C91.7 136.5 105.4 136 109.1 136.3C112.7 136.7 114.2 139.3 113.6 141.4C112.9 143.5 112.3 147 104.4 147C96.4 147 74.8 148.9 74.8 148.9C74.8 148.9 54.1 168.7 58.4 214.3C60.5 236.2 61.5 238.2 69.1 264.9" fill="white"/>
<path d="M24.7 264.7C22.6 255.2 19.6 248.2 18.3 218.2C15.3 152.2 44.5 122 54.7 113C83.6 84.9 78.3 89.5 86.6 82.2C88.2 80.8 91.1 78.4 94.9 81.4C97.9 83.8 96.4 87.8 93.6 90.7C89.7 94.5 78 105.9 78.8 106.5C79.5 107.1 104.8 86.7 107.8 83.9C111.4 80.5 114 79.5 116.9 81.8C120 84.3 119 88.5 116.1 91.1C112.3 94.6 89.8 114.5 91.2 114.4C92.6 114.3 115.8 100.3 119.3 97.9C122.9 95.5 127.7 95.8 129.2 98.5C130.7 101.1 129.2 104.9 125.6 107.3C122 109.7 87.2 132.8 89.5 134.6C91.7 136.5 105.4 136 109.1 136.3C112.7 136.7 114.2 139.3 113.6 141.4C112.9 143.5 112.3 147 104.4 147C96.4 147 74.8 148.9 74.8 148.9C74.8 148.9 54.1 168.7 58.4 214.3C60.5 236.2 61.5 238.2 69.1 264.9" stroke="#1A0641" stroke-width="2" stroke-miterlimit="10"/>
</g>
<defs>
<clipPath id="clip0">
<rect width="116" height="273" fill="white"/>
</clipPath>
</defs>
</svg>
