<?xml version="1.0" encoding="UTF-8"?>
<svg width="75px" height="30px" viewBox="0 0 75 30" version="1.1" xmlns="http://www.w3.org/2000/svg" xmlns:xlink="http://www.w3.org/1999/xlink">
    <!-- Generator: Sketch Beta 52 (66869) - http://www.bohemiancoding.com/sketch -->
    <title>Artboard</title>
    <desc>Created with Sketch Beta.</desc>
    <g id="Artboard" stroke="none" stroke-width="1" fill="none" fill-rule="evenodd">
        <path d="M-5.68434189e-14,12.7948304 L-5.68434189e-14,0.197947963 L3.34501434,0.197947963 L3.34501434,10.0080775 L10.65626,10.0080775 L10.2739726,12.7948304 L-5.68434189e-14,12.7948304 Z M22.7460975,0.242326333 L22.7460975,9.08723748 C22.7460975,10.904685 22.7699904,12.1405493 22.7938834,12.7948304 L19.6400127,12.7948304 C19.5683339,12.4071082 19.5444409,11.8739903 19.5205479,11.2924071 C18.7559732,12.6009693 17.6568971,13.0129241 16.1038547,13.0129241 C13.6428799,13.0129241 12.2809812,11.4378029 12.2809812,8.62681745 L12.2809812,0.242326333 L15.5065307,0.242326333 L15.5065307,8.06946688 C15.5065307,9.40226171 15.9843899,10.2988691 17.3223957,10.2988691 C18.6604014,10.2988691 19.496655,9.45072698 19.496655,7.24555735 L19.496655,0.242326333 L22.7460975,0.242326333 Z M38.395986,0.242326333 L41.8604651,0.242326333 C42.8639694,5.06462036 43.4851864,7.87560582 43.7480089,9.35379645 L43.7957948,9.35379645 C44.0825104,7.87560582 44.870978,4.74959612 45.9461612,0.242326333 L48.8611023,0.242326333 C49.8168206,3.99838449 50.772539,7.85137318 50.9397897,9.28109855 L50.9636827,9.28109855 C51.1787193,7.99676898 51.6326856,6.05815832 52.9467983,0.242326333 L56.1723479,0.242326333 L52.4928321,12.7948304 L49.2433896,12.7948304 C48.3354572,8.99030695 47.5708824,6.27625202 47.2841669,4.50726979 L47.260274,4.50726979 C46.9496655,6.32471729 46.0178401,9.69305331 45.1576935,12.7948304 L41.8843581,12.7948304 L38.395986,0.242326333 Z M58.1562735,12.5968824 L58.1562735,0 L61.405716,0 L61.405716,12.5968824 L58.1562735,12.5968824 Z M74.9522141,4.02261712 L74.9522141,11.5589661 C74.9522141,15.4361874 73.3752788,17.8109855 69.098439,17.8109855 C65.0844218,17.8109855 63.9136668,15.6300485 63.770309,13.7641357 L66.9719656,13.7641357 C67.1870022,14.7576737 67.9754699,15.2907916 69.2895827,15.2907916 C71.3443772,15.2907916 71.7744505,14.0549273 71.7744505,11.7770598 L71.7744505,11.0016155 C71.1532335,12.1890145 69.9824785,12.6494346 68.477222,12.6494346 C65.5144951,12.6494346 63.5552724,10.2746365 63.5552724,6.39741519 C63.5552724,2.39903069 65.9206754,2.84217094e-14 68.6922587,2.84217094e-14 C70.6514814,2.84217094e-14 71.4160561,0.726978998 71.7027716,1.40549273 C71.7027716,1.11470113 71.7983434,0.484652666 71.8461293,0.242326333 L75,0.242326333 C74.976107,0.872374798 74.9522141,2.27786753 74.9522141,4.02261712 Z M66.9002867,6.32471729 C66.9002867,3.78029079 68.0232558,2.71405493 69.4568334,2.71405493 C71.5594138,2.71405493 71.8700223,3.99838449 71.8700223,6.30048465 C71.8700223,8.86914378 71.2249124,9.95961228 69.3851545,9.95961228 C67.8082192,9.95961228 66.9002867,8.55411955 66.9002867,6.32471729 Z M-5.68434189e-14,29.7819063 L-5.68434189e-14,17.1844957 L3.27333546,17.1844957 L10.6463986,17.1844957 L10.275,20.0097207 L3.27333546,20.0097207 L3.27333546,22.6567912 L7.98629561,22.6567912 L7.61489696,25.3950788 L3.27333546,25.3950788 L3.27333546,29.7819063 L-5.68434189e-14,29.7819063 Z M12.8544122,29.7819063 L12.8544122,21.4943457 C12.8544122,19.4345719 12.8544122,18.1017771 12.8066263,17.2294023 L15.960497,17.2294023 C16.0321759,17.7867528 16.0560688,18.5864297 16.0560688,19.4345719 C16.4622491,18.3925687 17.5613253,17.0355412 19.8072635,17.0355412 L19.8072635,20.3796446 C17.2507168,20.3311793 16.1038547,21.2035541 16.1038547,24.0872375 L16.1038547,29.7819063 L12.8544122,29.7819063 Z M31.4670277,21.1308562 L31.4670277,26.5347334 C31.4670277,27.3828756 31.5148136,28.8852989 31.6342784,29.7819063 L28.7910162,29.7819063 C28.6954444,29.4184168 28.6237655,28.6429725 28.5998726,28.2552504 C28.0981204,29.273021 26.9273654,30 25.1353934,30 C22.0770946,30 21.0019114,28.0613893 21.0019114,26.1712439 C21.0019114,23.917609 22.5310608,22.0516963 26.8317936,22.0516963 L28.2892641,22.0516963 L28.2892641,21.1308562 C28.2892641,20.1130856 27.9786556,19.3134087 26.5211851,19.3134087 C25.0876075,19.3134087 24.7292131,20.0646204 24.6097483,20.9854604 L21.4797706,20.9854604 C21.5992354,18.9983845 22.7699904,16.9870759 26.568971,16.9870759 C29.4839121,16.9870759 31.4670277,18.0290792 31.4670277,21.1308562 Z M28.3848359,24.4264943 L28.3848359,24.1599354 L26.8795795,24.1599354 C24.6575342,24.1599354 24.2513539,25.0807754 24.2513539,25.904685 C24.2513539,26.7770598 24.7531061,27.5040388 25.99554,27.5040388 C27.9308697,27.5040388 28.3848359,26.1954766 28.3848359,24.4264943 Z M34.5253265,29.7819063 L34.5253265,21.1550889 C34.5253265,18.5621971 34.5014336,17.7867528 34.4775406,17.2294023 L37.6314113,17.2294023 C37.6791972,17.4717286 37.7508761,18.2714055 37.7508761,18.8529887 C38.2526282,17.8836834 39.4233832,16.9870759 41.1914622,16.9870759 C43.7957948,16.9870759 45.1099076,18.6833603 45.1099076,21.5670436 L45.1099076,29.7819063 L41.8604651,29.7819063 L41.8604651,22.1970921 C41.8604651,20.7673667 41.5020707,19.7011309 39.9729213,19.7011309 C38.4915578,19.7011309 37.774769,20.5735057 37.774769,22.7786753 L37.774769,29.7819063 L34.5253265,29.7819063 Z M51.4176489,17.2294023 L51.4176489,22.4636511 C52.3016884,21.3247173 53.9264097,19.1922456 55.3599873,17.2294023 L59.039503,17.2294023 C57.844855,18.7075929 56.2679197,20.5250404 54.9538069,22.1243942 C56.3157056,24.3780291 57.9643198,27.2859451 59.3978974,29.7819063 L55.6705957,29.7819063 C54.8343421,28.2067851 53.6635871,25.9531502 52.8034406,24.3053312 C52.7556547,24.3780291 51.4893278,25.7835218 51.4176489,25.8319871 L51.4176489,29.7819063 L48.1682064,29.7819063 L48.1682064,17.2294023 L51.4176489,17.2294023 Z M25.6605,9.00654766 L25.6605,0.247412707 C28.8285,0.247412707 31.0605,0.247412707 32.3565,0.247412707 C35.5485,0.247412707 37.1565,2.79954281 37.1565,6.13428659 C37.1565,10.1992662 35.3805,12.8524565 31.9005,12.8524565 C30.7005,12.8524565 28.6045,12.8524565 25.6125,12.8524565 C25.6365,12.0005147 25.6605,10.296631 25.6605,9.00654766 Z M33.8685,6.28033376 C33.8685,4.21133215 33.1005,2.72651922 31.3005,2.72651922 C30.689916,2.72651922 29.833916,2.72651922 28.7325,2.72651922 C28.7325,4.36732622 28.7325,5.61684092 28.7325,6.47506333 C28.7325,7.34786298 28.7325,8.66228754 28.7325,10.418337 C29.8218648,10.418337 30.6778648,10.418337 31.3005,10.418337 C33.0525,10.418337 33.8685,8.81181809 33.8685,6.28033376 Z" id="Combined-Shape" fill="#000000"></path>
    </g>
</svg>